<?xml version="1.0" encoding="UTF-8"?><svg id="b" xmlns="http://www.w3.org/2000/svg" width="163.69mm" height="28.57mm" viewBox="0 0 464 81"><defs><style>.c{fill:#040000;}</style></defs><path class="c" d="m41.47,37.4l-5.43-3.21c-2.23-1.31-3.84-2.54-4.78-3.65-.79-.93-1.18-1.88-1.18-2.89s.45-1.81,1.41-2.5c1.14-.82,2.67-1.23,4.55-1.23,3.57,0,6.98,1.55,10.15,4.6l3.36,3.24v-13.78l-.88-.59c-3.77-2.54-7.98-3.82-12.5-3.82-4.81,0-8.81,1.4-11.88,4.16-3.13,2.82-4.72,6.51-4.72,10.98,0,3.01.85,5.72,2.52,8.06,1.58,2.21,4.21,4.44,7.8,6.64l5.38,3.27c3.71,2.31,5.59,4.63,5.59,6.9,0,1.27-.48,2.27-1.51,3.13-1.12.94-2.52,1.39-4.28,1.39-4.44,0-8.28-2.13-11.75-6.53l-3.54-4.49v15.72l.8.6c4.35,3.26,9.25,4.91,14.56,4.91,4.76,0,8.7-1.43,11.73-4.26,3.07-2.86,4.62-6.61,4.62-11.14,0-6.3-3.38-11.52-10.04-15.5Z"/><path class="c" d="m70.03,30.48c-5.06,0-9.24,1.79-12.43,5.32-3.14,3.47-4.73,8-4.73,13.45,0,3.62.75,6.88,2.24,9.68,1.49,2.8,3.5,5.07,5.99,6.73,2.54,1.71,5.85,2.57,9.83,2.57,2.8,0,5.3-.31,7.42-.93,2.14-.62,4.31-1.66,6.45-3.09l.88-.59v-11.31l-3.16,2.33c-3.23,2.38-6.8,3.59-10.6,3.59-2.54,0-4.54-.72-6.1-2.22-1.12-1.08-1.86-2.4-2.24-4.03h22.67v-2.8c0-5.55-1.46-10.07-4.34-13.46-2.96-3.48-6.96-5.24-11.87-5.24Zm0,9.58c1.78,0,3.13.49,4.12,1.5.64.65,1.11,1.52,1.4,2.58h-11.51c.41-1.03.97-1.88,1.66-2.53,1.11-1.04,2.52-1.55,4.33-1.55Z"/><path class="c" d="m107.18,58.29c-2.92,0-5.14-.78-6.79-2.38-1.64-1.59-2.43-3.72-2.43-6.52s.75-4.8,2.28-6.49c1.49-1.63,3.35-2.42,5.7-2.42s5.09.94,8.01,2.81l3.05,1.95v-11.79l-1.18-.52c-2.06-.92-3.85-1.56-5.3-1.91-1.48-.35-3.16-.53-4.98-.53-5.37,0-9.79,1.8-13.12,5.35-3.3,3.51-4.97,8.14-4.97,13.78s1.73,10.18,5.14,13.57c3.41,3.4,7.99,5.12,13.62,5.12,3.32,0,6.75-.65,10.2-1.93l1.29-.48v-10.83l-2.8,1.26c-2.95,1.32-5.55,1.99-7.74,1.99Z"/><path class="c" d="m138.68,31.04c-5.52,0-10.19,1.79-13.88,5.32-3.71,3.55-5.6,8.05-5.6,13.37s1.86,9.73,5.54,13.26c3.65,3.51,8.25,5.29,13.65,5.29s10.25-1.75,13.95-5.2c3.74-3.49,5.63-7.92,5.63-13.18s-1.86-9.92-5.53-13.5c-3.66-3.56-8.29-5.37-13.77-5.37Zm6.32,24.82c-1.65,1.63-3.74,2.42-6.39,2.42s-4.79-.79-6.46-2.4c-1.65-1.6-2.45-3.63-2.45-6.22s.79-4.72,2.42-6.38c1.61-1.65,3.64-2.45,6.21-2.45s4.83.82,6.57,2.49c1.72,1.66,2.55,3.71,2.55,6.27s-.8,4.64-2.44,6.27Z"/><path class="c" d="m186.14,32.34c-2.06-1.24-4.31-1.86-6.7-1.86-2.81,0-5.44.81-7.84,2.42v-1.78h-10.57v36.61h10.57v-24.65c1.67-2.18,3.56-3.24,5.78-3.24,1.72,0,2.86.43,3.49,1.31.53.74,1.16,2.39,1.16,6v20.58h10.43v-20.65c0-4.32-.51-7.46-1.57-9.59-1.08-2.17-2.67-3.9-4.75-5.15Z"/><path class="c" d="m219.28,31.09c-1.79-.45-3.5-.68-5.11-.68-5.22,0-9.58,1.77-12.97,5.25-3.37,3.47-5.09,7.92-5.09,13.23,0,5.63,1.63,10.22,4.85,13.64,3.25,3.45,7.62,5.2,12.99,5.2h15.79V14.19h-10.46v16.9Zm-12.67,18.58c0-3.05.79-5.46,2.34-7.18,1.52-1.69,3.56-2.5,6.21-2.5,1.37,0,2.75.28,4.12.82v17.42h-3.02c-3.48,0-4.85-.29-5.36-.46-.79-.27-1.57-.83-2.33-1.66-1.31-1.44-1.97-3.6-1.97-6.43Z"/><path class="c" d="m443,49c0-5.62-1.48-10.21-4.4-13.63-3-3.52-7.04-5.3-12.02-5.3s-9.36,1.81-12.59,5.39c-3.18,3.52-4.8,8.1-4.8,13.62,0,3.67.76,6.97,2.26,9.8,1.5,2.84,3.55,5.13,6.06,6.82,2.58,1.73,5.93,2.6,9.96,2.6,2.84,0,5.37-.32,7.52-.94,2.16-.63,4.36-1.68,6.54-3.13l.89-.59v-11.43l-3.19,2.35c-3.27,2.41-6.89,3.64-10.75,3.64-2.58,0-4.6-.74-6.19-2.25-1.14-1.09-1.9-2.45-2.28-4.11h22.98v-2.83Zm-20.82-7.68c1.12-1.06,2.56-1.58,4.4-1.58s3.17.5,4.18,1.52c.65.66,1.13,1.55,1.43,2.64h-11.7c.42-1.06.99-1.92,1.69-2.59Z"/><polygon class="c" points="297.07 34.82 273.03 34.82 273.03 13.25 261.9 13.25 261.9 67.11 273.03 67.11 273.03 45.41 297.07 45.41 297.07 67.11 308.19 67.11 308.19 13.25 297.07 13.25 297.07 34.82"/><path class="c" d="m332.01,30.21c-5.55,0-10.25,1.8-13.96,5.35-3.74,3.58-5.63,8.1-5.63,13.45s1.88,9.79,5.57,13.34c3.68,3.53,8.3,5.32,13.73,5.32s10.31-1.76,14.03-5.23c3.76-3.51,5.67-7.97,5.67-13.26s-1.87-9.98-5.56-13.58c-3.68-3.58-8.34-5.4-13.85-5.4Zm6.36,24.98c-1.66,1.64-3.77,2.44-6.44,2.44s-4.83-.79-6.5-2.42c-1.66-1.61-2.47-3.66-2.47-6.26s.8-4.75,2.43-6.43c1.62-1.66,3.67-2.47,6.25-2.47s4.86.82,6.61,2.51c1.73,1.67,2.57,3.74,2.57,6.31s-.81,4.67-2.46,6.31Z"/><path class="c" d="m393.13,29.57c-3.71,0-7.28,1.62-10.63,4.83-2.54-3.16-5.87-4.76-9.93-4.76-2.56,0-5.15.9-7.72,2.67v-2.03h-10.48v36.83h10.48v-25.05c1.08-1.11,2.03-1.89,2.84-2.33.83-.45,1.77-.68,2.78-.68,1.74,0,2.87.42,3.46,1.29.42.62,1.12,2.28,1.12,6.5v20.27h10.52v-25.08c1.8-1.91,3.61-2.84,5.54-2.84,1.47,0,2.5.45,3.24,1.4.84,1.09,1.26,2.79,1.26,5.07v21.45h10.48v-21.38c0-5.26-1.21-9.3-3.59-11.99-2.44-2.77-5.6-4.17-9.37-4.17Z"/></svg>